#!OML:ASF X:\für Bonn\!DataBase\2005_08_10_Bjorn_Final\c3d\bjorn.ASF
:FULLY-SPECIFIED
:DEGREES
789
root 0.21096 1.44557 19.8874 -274.546 -0.442562 -534.735
lowerback 3.57283 -0.0232165 1.73142
upperback 4.02948 -0.13987 -0.490637
thorax 2.13304 -0.0870962 -1.47423
lowerneck -18.4173 -3.67574 0.520803
upperneck 10.809 -5.76478 3.5875
head 6.38134 -2.52884 0.445421
rclavicle -2.46493e-014 8.44835e-015
rhumerus -61.12 46.9255 -108.931
rradius 109.549
rwrist -31.7694
rhand 3.81337 8.28578
rfingers 7.12502
rthumb 29.2375 -19.4369
lclavicle -2.46493e-014 8.44835e-015
lhumerus -60.0287 -58.9818 107.625
lradius 110.866
lwrist 43.7115
lhand 11.5014 -371.188
lfingers 7.12502
lthumb 36.5489 14.992
rfemur -1.1133 -19.0711 8.42553
rtibia 25.285
rfoot 6.08063 -4.5069
rtoes 14.8931
lfemur -4.79668 4.3134 -11.1851
ltibia 27.3201
lfoot 7.79736 0.91182
ltoes 6.06249
790
root 0.217639 1.44486 19.8881 -274.556 -0.425409 -534.786
lowerback 3.60718 -0.0119704 1.69958
upperback 4.02884 -0.125644 -0.473524
thorax 2.11367 -0.0814776 -1.43894
lowerneck -18.4512 -3.69405 0.515776
upperneck 10.801 -5.78896 3.5885
head 6.38485 -2.54069 0.443374
rclavicle 6.36111e-015 2.88238e-015
rhumerus -61.1397 47.0873 -109.109
rradius 109.366
rwrist -31.8398
rhand 4.18795 8.20382
rfingers 7.12502
rthumb 29.5951 -19.456
lclavicle 6.36111e-015 2.88238e-015
lhumerus -60.4041 -59.1146 108.036
lradius 110.783
lwrist 43.8568
lhand 11.2807 -371.152
lfingers 7.12502
lthumb 36.34 15.0807
rfemur -1.12698 -19.0812 8.45279
rtibia 25.3224
rfoot 5.98838 -4.54064
rtoes 14.9739
lfemur -4.73592 4.31762 -11.1036
ltibia 27.2686
lfoot 7.55272 1.37967
ltoes 6.27241
791
root 0.224363 1.44419 19.8869 -274.557 -0.407768 -534.823
lowerback 3.61179 0.00358867 1.6765
upperback 4.0391 -0.106156 -0.468688
thorax 2.12239 -0.0726051 -1.42139
lowerneck -18.4332 -3.71444 0.514512
upperneck 10.7365 -5.82218 3.63213
head 6.36318 -2.5559 0.454761
rclavicle -7.15625e-015 1.66979e-014
rhumerus -61.1453 47.219 -109.265
rradius 109.192
rwrist -31.933
rhand 4.46787 8.17284
rfingers 7.12502
rthumb 29.8623 -19.4393
lclavicle -7.15625e-015 1.66979e-014
lhumerus -60.7427 -59.2718 108.371
lradius 110.679
lwrist 43.8782
lhand 11.0043 -371.201
lfingers 7.12502
lthumb 36.0783 15.0967
rfemur -1.1511 -19.0955 8.48262
rtibia 25.366
rfoot 5.91354 -4.57265
rtoes 15.0406
lfemur -4.68481 4.40243 -11.0131
ltibia 27.2151
lfoot 7.39059 1.73448
ltoes 6.48062
792
root 0.230534 1.44365 19.8873 -274.56 -0.376018 -534.868
lowerback 3.6152 0.0116412 1.67454
upperback 4.05509 -0.0967501 -0.458279
thorax 2.13737 -0.0683841 -1.40981
lowerneck -18.4464 -3.73044 0.494348
upperneck 10.6763 -5.84791 3.69223
head 6.34905 -2.5663 0.474623
rclavicle 1.51076e-014 -6.55989e-015
rhumerus -61.1235 47.359 -109.387
rradius 109.011
rwrist -31.9444
rhand 4.68137 8.17514
rfingers 7.12502
rthumb 30.066 -19.4002
lclavicle 1.51076e-014 -6.55989e-015
lhumerus -60.9618 -59.384 108.607
lradius 110.543
lwrist 43.8197
lhand 10.6611 -371.19
lfingers 7.12502
lthumb 35.7531 15.1869
rfemur -1.17438 -19.105 8.52657
rtibia 25.4059
rfoot 5.83171 -4.61555
rtoes 15.1897
lfemur -4.64109 4.45323 -10.9219
ltibia 27.164
lfoot 7.21358 2.0888
ltoes 6.31514
793
root 0.236434 1.4435 19.8865 -274.552 -0.358532 -534.906
lowerback 3.60511 0.0196673 1.6494
upperback 4.06362 -0.0874061 -0.442489
thorax 2.15211 -0.0646087 -1.37969
lowerneck -18.4736 -3.74925 0.4834
upperneck 10.658 -5.87414 3.71143
head 6.349 -2.57839 0.479289
rclavicle 4.77083e-015 -2.5842e-015
rhumerus -61.1042 47.4856 -109.497
rradius 108.806
rwrist -31.9924
rhand 4.78843 8.15653
rfingers 7.12502
rthumb 30.1682 -19.4002
lclavicle 4.77083e-015 -2.5842e-015
lhumerus -61.1966 -59.4785 108.849
lradius 110.417
lwrist 43.7149
lhand 10.2492 -371.133
lfingers 7.12502
lthumb 35.3626 15.3374
rfemur -1.20849 -19.042 8.57519
rtibia 25.448
rfoot 5.71524 -4.70199
rtoes 15.4818
lfemur -4.60462 4.51878 -10.8399
ltibia 27.1132
lfoot 7.0438 2.45266
ltoes 6.62267
794
root 0.242381 1.44305 19.8857 -274.554 -0.341663 -534.943
lowerback 3.60687 0.02667 1.62232
upperback 4.07808 -0.0797175 -0.435089
thorax 2.1663 -0.061815 -1.35708
lowerneck -18.4849 -3.76772 0.473319
upperneck 10.6121 -5.90743 3.77488
head 6.33916 -2.59174 0.497644
rclavicle 3.18055e-015 -4.27387e-015
rhumerus -61.0279 47.5976 -109.556
rradius 108.571
rwrist -31.9621
rhand 4.8679 8.22209
rfingers 7.12502
rthumb 30.244 -19.3207
lclavicle 3.18055e-015 -4.27387e-015
lhumerus -61.3806 -59.5858 109.02
lradius 110.289
lwrist 43.4945
lhand 9.81912 -371.115
lfingers 7.12502
lthumb 34.9548 15.4518
rfemur -1.23012 -18.9094 8.63554
rtibia 25.4838
rfoot 5.54268 -4.84005
rtoes 15.7953
lfemur -4.56253 4.54408 -10.77
ltibia 27.0652
lfoot 6.89235 2.77909
ltoes 6.72213
795
root 0.24772 1.44226 19.885 -274.554 -0.324983 -534.972
lowerback 3.62337 0.0289698 1.59795
upperback 4.075 -0.0771635 -0.41763
thorax 2.15391 -0.0615956 -1.32549
lowerneck -18.5047 -3.78466 0.43527
upperneck 10.6143 -5.93124 3.82975
head 6.34655 -2.60055 0.518116
rclavicle -1.59028e-015 2.78299e-015
rhumerus -60.9628 47.6952 -109.59
rradius 108.314
rwrist -31.884
rhand 4.91155 8.32146
rfingers 7.12502
rthumb 30.2856 -19.2137
lclavicle -1.59028e-015 2.78299e-015
lhumerus -61.556 -59.6353 109.187
lradius 110.15
lwrist 43.2181
lhand 9.40829 -371.016
lfingers 7.12502
lthumb 34.5649 15.6402
rfemur -1.25545 -18.8459 8.68371
rtibia 25.5193
rfoot 5.46293 -4.88581
rtoes 15.8715
lfemur -4.52476 4.57584 -10.7016
ltibia 27.0165
lfoot 6.74617 3.09096
ltoes 7.04537
796
root 0.252759 1.4427 19.8842 -274.552 -0.326006 -535.002
lowerback 3.61703 0.027461 1.55212
upperback 4.08087 -0.0806456 -0.405327
thorax 2.16328 -0.0647253 -1.28712
lowerneck -18.5015 -3.79063 0.413621
upperneck 10.5819 -5.93989 3.8706
head 6.33785 -2.60347 0.533965
rclavicle 1.82882e-014 -9.64106e-015
rhumerus -60.8628 47.7846 -109.582
rradius 108.081
rwrist -31.8814
rhand 4.91754 8.31855
rfingers 7.12502
rthumb 30.2913 -19.2156
lclavicle 1.82882e-014 -9.64106e-015
lhumerus -61.6694 -59.6584 109.294
lradius 109.978
lwrist 42.8196
lhand 9.07941 -370.956
lfingers 7.12502
lthumb 34.2527 15.7714
rfemur -1.27354 -18.7014 8.72224
rtibia 25.5506
rfoot 5.28913 -5.03126
rtoes 16.16
lfemur -4.48854 4.70423 -10.6432
ltibia 26.9689
lfoot 6.67361 3.26552
ltoes 7.15264
797
root 0.257653 1.44187 19.8835 -274.554 -0.308507 -535.03
lowerback 3.62477 0.0305279 1.53698
upperback 4.09158 -0.0776741 -0.400788
thorax 2.1701 -0.0639675 -1.27404
lowerneck -18.5146 -3.80178 0.423452
upperneck 10.5446 -5.9653 3.91445
head 6.32973 -2.61347 0.543659
rclavicle 6.36111e-015 -3.97569e-015
rhumerus -60.7252 47.8476 -109.559
rradius 107.868
rwrist -31.9139
rhand 4.86091 8.20874
rfingers 7.12502
rthumb 30.2373 -19.3353
lclavicle 6.36111e-015 -3.97569e-015
lhumerus -61.7228 -59.7075 109.318
lradius 109.803
lwrist 42.3675
lhand 8.7918 -370.874
lfingers 7.12502
lthumb 33.9795 15.9148
rfemur -1.29706 -18.5579 8.78826
rtibia 25.585
rfoot 5.13966 -5.13653
rtoes 16.3088
lfemur -4.45011 4.78226 -10.567
ltibia 26.92
lfoot 6.5877 3.49023
ltoes 7.64334
798
root 0.261623 1.44133 19.8831 -274.553 -0.308408 -535.058
lowerback 3.62838 0.0273637 1.50602
upperback 4.09342 -0.0827355 -0.393379
thorax 2.16974 -0.0674953 -1.24899
lowerneck -18.5126 -3.80793 0.402953
upperneck 10.5189 -5.97484 3.95533
head 6.32336 -2.61665 0.559135
rclavicle -7.95139e-015 -7.7526e-015
rhumerus -60.6049 47.9044 -109.514
rradius 107.666
rwrist -31.9714
rhand 4.84373 8.09596
rfingers 7.12502
rthumb 30.2209 -19.4511
lclavicle -7.95139e-015 -7.7526e-015
lhumerus -61.7546 -59.7184 109.339
lradius 109.599
lwrist 41.9023
lhand 8.60437 -370.822
lfingers 7.12502
lthumb 33.8015 16.0055
rfemur -1.32105 -18.3816 8.83913
rtibia 25.6122
rfoot 4.98559 -5.26755
rtoes 16.3488
lfemur -4.41565 4.79373 -10.5313
ltibia 26.8787
lfoot 6.46525 3.7171
ltoes 7.9114
799
root 0.264748 1.44081 19.8824 -274.534 -0.306603 -535.07
lowerback 3.61085 0.0216581 1.49405
upperback 4.09448 -0.0905408 -0.404068
thorax 2.18035 -0.0713874 -1.25316
lowerneck -18.5148 -3.80919 0.416193
upperneck 10.492 -5.9936 4.02786
head 6.31775 -2.62116 0.57818
rclavicle 2.38542e-014 -1.90833e-014
rhumerus -60.4399 47.9504 -109.457
rradius 107.467
rwrist -32.0166
rhand 4.80521 7.96963
rfingers 7.12502
rthumb 30.1842 -19.5841
lclavicle 2.38542e-014 -1.90833e-014
lhumerus -61.798 -59.7411 109.349
lradius 109.408
lwrist 41.4338
lhand 8.46435 -370.752
lfingers 7.12502
lthumb 33.6684 16.1048
rfemur -1.36739 -18.2427 8.88909
rtibia 25.6421
rfoot 4.85914 -5.38186
rtoes 16.4357
lfemur -4.40576 4.87353 -10.4863
ltibia 26.8346
lfoot 6.40072 3.8862
ltoes 8.46951
